<?xml version="1.0"?>
<svg xmlns:rdf="http://www.w3.org/1999/02/22-rdf-syntax-ns#" xmlns="http://www.w3.org/2000/svg" xmlns:cc="http://creativecommons.org/ns#" xmlns:xlink="http://www.w3.org/1999/xlink" xmlns:dc="http://purl.org/dc/elements/1.1/" xmlns:svg="http://www.w3.org/2000/svg" id="svg2" viewBox="0 0 411.69 413.13" version="1.0">
  <defs id="defs4">
    <linearGradient id="linearGradient2770" x1="105.13" gradientUnits="userSpaceOnUse" y1="511.36" gradientTransform="matrix(.75373 0 0 .75373 -78.86 -176.01)" x2="652.41" y2="511.36">
      <stop id="stop2766" stop-color="#3792b3" offset="0"/>
      <stop id="stop2768" stop-color="#fff" offset="1"/>
    </linearGradient>
    <linearGradient id="linearGradient7244" x1="113.03" gradientUnits="userSpaceOnUse" y1="452.12" gradientTransform="matrix(.75373 0 0 .75373 -78.86 -176.01)" x2="524.6" y2="452.12">
      <stop id="stop7212" stop-color="#29dd1b" offset="0"/>
      <stop id="stop7214" stop-color="#96f28f" offset="1"/>
    </linearGradient>
    <radialGradient id="radialGradient5549" gradientUnits="userSpaceOnUse" cy="249.76" cx="194.89" gradientTransform="matrix(1 0 0 .95774 0 10.554)" r="129.89">
      <stop id="stop5543" stop-color="#feffe5" offset="0"/>
      <stop id="stop5551" stop-color="#fff98c" offset=".34513"/>
      <stop id="stop5545" stop-color="#fff41a" offset="1"/>
    </radialGradient>
    <filter id="filter8535">
      <feGaussianBlur id="feGaussianBlur8537" stdDeviation="4.4057946"/>
    </filter>
    <filter id="filter11578">
      <feGaussianBlur id="feGaussianBlur11580" stdDeviation="5.0331718"/>
    </filter>
  </defs>
  <g id="layer1" transform="translate(-.50754 -2.8531)">
    <path id="path1308" stroke-linejoin="round" d="m1.8967 135.88c21.45 13.73 42.934 51.54 65.682 74.29 29.732 29.73 67.181 81.38 77.521 122.75 5.73 22.89 26.98 63.81 42 81.83 0.42 1.7 27.76-19.2 32.3-22.61 13.82-10.36 23.62-22.92 37.69-32.3 22.05-14.7 17.3-26.83 39.84-40.92 14.63-9.14 32.55-32.5 59.22-36.61 5.72-0.88 13.32-4.7 24.76-8.61 8.18-2.79 15.08-4.31 21.54-10.77 3.56-4.11 5.9-2.76 8.61-11.84-0.65-13.71-35.75-59.44-41.99-65.68-25.11-25.11-27.21-43.36-52.76-68.92-1.8-1.79-21.9-31.58-23.69-33.375-10.33-10.331-32.5-7.668-45.22-16.151-10.77-7.179-19.41-25.929-23.69-38.763-3.15-9.43-18.86-21.404-28-23.688-12.31-3.0794-20.08 7.941-26.92 16.151-17.16 20.601-51.08 35.566-72.139 50.607-13.754 9.825-35.73 3.296-51.684 8.614-10.238 3.413-22.912 22.915-29.073 29.075-3.808 3.81-3.381 2.06-5.797 8.1-2.7429 6.86-9.9029 10.3-8.2003 18.82z" fill-rule="evenodd" stroke="#000" stroke-linecap="round" stroke-width="2.2612" fill="url(#linearGradient2770)"/>
    <path id="path3544" d="m210.86 23.106c1.57 4.284 7.29 6.227 6.49 9.826-2.02 9.023-3.75 6.5-3.17 9.803 1.01 5.665-1.55 8.647-0.06 13.968 2.22 7.945 10.16 12.725 16.47 17.496 1.17 0.883 2.27 1.836 3.4 2.754 6.09 4.942 11.73 10.781 18.55 14.959 3.37 2.066 6.06 7.872 7.07 11.508 1.38 4.93 4.23 9.55 7.09 13.75 3.53 5.19 7.81 9.9 12.56 13.98 4.79 4.11 10.39 11.6 11.53 18.04 1.41 7.99-2.93 0.39-4.67 5.43-2.29 6.67-3.6 2.91-14.11 2.49-1.3-0.05-9.61-10.61-10.91-10.66-7.52-0.3-9.53-4.95-15.14-8.39l-5.22-3.21c-4.22-2.58-4.89-8.65-11.49-9.06-8.85-0.55-10.02 7.35-10.12 7.46-1.95 1.92-3.31 4.65-4.66 6.55-2.23 3.13-3.08 7.31-6.46 11.72-3.2 4.16-5.98 7.88-9.32 11.98-3.36 4.1-10.79 7.6-11.81 11.45-0.11 0.39 0 0.75 0 1.13 0.02 5.63 2.65 11.14 3.08 17.01 0.33 4.49-0.58 5.92 4.2 8.4 4.98 2.58 8.66 6.06 13.57 8.77 3.32 1.83 5.76 3.61 8.36 5.57 3.19 2.41 10.24 2.31 14.07 2.81 3.54 0.46 6.92-0.98 10.41-0.34 4.51 0.83 17.91-9.48 22.62-9.29 6.67 0.26 30.11-10.04 34.91 9.51 2.72 11.04 33.04 19.74 22.98 30.81-9.96 10.95-27.39 3.63-43.7 19.84-29.48 29.32-26.69 54.98-44.1 61.45-17.25 6.41-32.82-34.69-43.64-41.33-6.32-3.88-3.7-22.95-10.33-27.02-8.63-5.3-20.39-8.38-29.73-13.53-4.15-2.29-8.84-1.1-14.59-1.33-1.69-0.07-3.47 0.11-5.2 0.17-13.77 0.44-26.6-7.13-36.246-13.04-1.74-1.07-3.48-2.14-5.22-3.2-4.799-2.95-6.374-7.74-10.202-11.64-16.758-17.07-19.881-22.38-25.04-28.46-5.1-6.01-27.999-35.13-32.399-39.41-11.515-11.18-20.812-14.13-16.543-24.1 6.903-16.11 27.045-36.484 37.557-44.797 8.105-6.41 29.215-4.484 37.035-5.887 6.299-1.13 14.359-2.522 19.197-4.653 66.311-43.796 36.931-22.124 71.841-50.056 1.74-5.122 3.48-8.732 7.12-11.207 4.96-3.3797 7.86-5.0485 13.77-6.941 3.99-1.2776 14.79 6.067 19.04 9.037 2.91 4.465 3.88 8.777 1.16 9.88z" fill-rule="evenodd" stroke="#000" stroke-width=".75373" fill="url(#linearGradient7244)"/>
    <path id="path2810" stroke="#000" stroke-width="1.5074" fill="none" d="m225.86 385.68c0.78 3.1-11.45-21.55-21.53-48.45-6.1-16.26-18.23-28.58-26.92-43.07-2.34-3.89-6.93-6.92-10.77-10.77-5.3-5.3-10.24-18.86-12.92-26.92-0.41-1.23-1.44-2.15-2.15-3.23-9.32-13.97-13.94-31.67-23.69-46.3-8.38-12.56-29.081-20.46-39.843-31.22-11.409-11.41-17.73-27.42-29.072-38.77-19.419-19.42-14.434-16.42-29.073-39.837"/>
    <path id="path3538" stroke="#000" stroke-width="1.5074" fill="none" d="m267.66 349.28c0.78 3.1-11.45-21.56-21.53-48.45-6.1-16.26-18.22-28.58-26.92-43.07-2.34-3.89-6.92-6.93-10.77-10.77-5.3-5.31-10.23-18.86-12.92-26.92-0.41-1.23-1.44-2.15-2.15-3.23-9.32-13.97-13.94-31.67-23.69-46.3-8.38-12.56-29.08-20.46-39.84-31.23-11.41-11.41-17.73-27.42-29.07-38.76-19.422-19.418-4.529 0.1-19.167-23.324"/>
    <path id="path3540" stroke="#000" stroke-width="1.5074" fill="none" d="m297.6 315.77c0.77 3.1-9.18-17.77-19.27-44.67-6.09-16.26-18.22-28.58-26.92-43.07-2.33-3.89-6.92-6.92-10.76-10.77-5.31-5.3-10.24-18.86-12.93-26.92-0.4-1.23-1.43-2.15-2.15-3.23-9.31-13.97-13.93-31.67-23.69-46.3-8.37-12.56-29.07-20.46-39.84-31.22-11.41-11.413-15.25-16.689-26.59-28.032-6.21-6.206-0.4-0.728-15.04-24.15"/>
    <path id="path5006" stroke="#000" stroke-width="1.5074" fill="none" d="m342.81 284.87c0.77 3.1-11.45-21.55-21.54-48.45-6.09-16.26-18.22-28.58-26.92-43.07-2.33-3.89-6.92-6.93-10.76-10.77-5.31-5.31-10.24-18.86-12.93-26.92-0.4-1.23-1.43-2.15-2.15-3.23-9.31-13.97-13.93-31.67-23.69-46.3-8.37-12.564-21.64-12.206-32.41-22.968-11.4-11.409-9.47-4.299-20.81-15.642-19.42-19.418-14.43-16.418-29.07-39.84"/>
    <path id="path5008" stroke="#000" stroke-width="1.5074" fill="none" d="m390.01 267.74c0.78 3.1-9.93-19.29-20.02-46.19-6.09-16.25-18.22-28.57-26.92-43.07-2.33-3.89-6.92-6.92-10.76-10.76-5.31-5.31-10.24-18.87-12.93-26.92-0.4-1.23-1.43-2.16-2.15-3.23-9.31-13.97-43.66-49.015-53.41-63.645"/>
    <path id="path5010" stroke="#000" stroke-width=".75373" fill="none" d="m26.838 158.06c8.314-19.59 31.19-36.73 49.546-52.02 6.173-5.15 12.976-8.279 20.644-11.565 10.852-4.653 22.112-10.735 34.682-10.735 11.72 0 23.7-2.119 34.68-5.78 12.91-4.301 26.08-14.516 35.51-23.947 4.86-4.864 10.35-7.352 14.86-10.735 2.14-1.599 3.56-9.224 4.96-11.561 0.94-1.573 1.72-2.299 2.48-3.303"/>
    <path id="path5012" stroke="#000" stroke-width=".75373px" fill="none" d="m49.96 191.09c2.065-3.44 17.364-10.24 23.947-11.56 5.584-1.12 8.133-4.01 11.561-7.43 5.582-5.59 10.299-10.65 17.342-16.52 8.49-7.07 16.67-14.77 25.6-21.47 12.28-9.21 29.95-22.76 44.59-26.42 8.96-2.24 16.89-9.386 25.6-11.563 7.09-1.773 13.38-2.315 20.64-4.129 8.66-2.166 17.51-9.149 25.6-12.387 2.96-1.186 7.1-5.445 9.08-7.432 2.74-2.738-0.77 0.39 1.66-0.825"/>
    <path id="path5014" stroke="#000" stroke-width=".75373px" fill="none" d="m90.9 233.41c1.638-1.64 3.955-2.99 6.954-5.99 9.456-9.46 23.576-15.5 35.506-21.47 2.2-1.1 4.41-2.2 6.61-3.3 5.57-2.79 10.82-7.52 14.86-11.56l8.26-8.26c6.49-6.49 11.66-14.58 18.99-19.82 7.24-5.16 13.34-14.16 19.82-20.64 4.95-4.95 10.51-8.86 15.69-14.04 5.61-5.6 10.47-9.5 16.52-14.04 4.56-3.42 13.21-7.84 18.99-10.73 3.64-1.82 7.25-3.879 11.56-4.956 6.64-1.66 14.75-4.485 20.64-7.432 3.78-1.886 6.3-2.4 9.91-3.303"/>
    <path id="path5016" stroke="#000" stroke-width=".75373px" fill="none" d="m120.77 275.53c3.45-1.73 5.33-4.51 8.46-7.64 5.15-5.15 10.81-9.29 16.52-14.04 8.15-6.79 19.07-9.99 26.42-17.34 6.05-6.05 19.18-9.69 26.43-14.04 4.97-2.98 11.13-5.57 16.51-8.26 1.65-0.82 3.31-1.65 4.96-2.48 5.94-2.97 11.62-8.32 16.51-13.21 8.37-8.37 20.03-15.37 29.73-22.29 1.93-1.38 3.85-2.76 5.78-4.13 7.22-5.16 14.66-8.63 22.3-13.22 7.03-4.21 15.93-6.02 21.47-11.56 5.41-5.41 8.11-3.83 10.73-9.08 1.15-2.29 3.82-2.99 4.96-4.13"/>
    <path id="path8539" opacity=".48731" d="m275.91 368.12l-79.06-39.74-77.55 42.59 13.37-87.47-64.473-60.59 87.313-14.32 37.71-80.04 40.59 78.62 87.78 11.13-62.23 62.9 16.55 86.92z" fill-rule="evenodd" transform="matrix(.28020 0 0 .28236 49.534 83.862)" filter="url(#filter11578)"/>
    <path id="path5018" stroke="#000" stroke-width=".75373px" fill="none" d="m144.78 330.03c2.62-5.24 8.91-4.85 14.18-10.12 5.37-5.37 17.86-10.2 24.77-14.04 6.25-3.47 11.41-9.75 16.52-14.86 6.6-6.61 12.99-10.51 19.82-17.34 3.94-3.95 8.87-6.66 13.21-9.91 5.58-4.19 11.31-7.63 18.17-9.91 7.54-2.52 17.08-11.58 23.94-15.69 6.35-3.81 11.68-12.51 15.69-16.52 5.88-5.88 11.13-11.78 15.69-18.16 2.83-3.96 5.86-7.89 9.91-9.91 7.68-3.84 15.91-15.03 22.3-19.82 5.54-4.16 6.64-5.39 12.38-8.26"/>
    <path id="path5020" stroke="#000" stroke-width=".75373px" fill="none" d="m164.53 378.3c3.46-1.73 10.37-6.62 15.07-11.32 4.47-4.47 8.96-8.13 14.04-13.21 3.48-3.49 6.7-6.06 10.74-9.09 11.53-8.64 21.09-22.74 31.38-33.03 7.6-7.6 17.25-11.53 27.25-14.86 9.11-3.04 17.31-4.94 25.6-9.09 4.27-2.13 9.98-7.5 13.21-10.73 4.28-4.29 8.54-7.72 13.21-12.39 2.2-2.2 4.4-4.4 6.61-6.6 5.19-5.2 9.56-12.87 14.86-18.17 3.61-3.61 6.86-8.77 9.08-13.21 2.48-4.95 8.08-9.15 11.56-13.21 4.56-5.32 11.47-7.35 17.35-13.22 1.51-1.51 3.12-2.3 4.12-3.3"/>
    <path id="path7974" stroke-linejoin="round" d="m275.91 368.12l-79.06-39.74-77.55 42.59 13.37-87.47-64.473-60.59 87.313-14.32 37.71-80.04 40.59 78.62 87.78 11.13-62.23 62.9 16.55 86.92z" fill-rule="evenodd" transform="matrix(.28020 0 0 .28236 50.841 79.288)" stroke="#000" stroke-linecap="round" stroke-width="6.3856" fill="url(#radialGradient5549)"/>
    <path id="path6523" opacity=".48223" d="m379.89 445.08c2.3 0.81-19.17-33.11-16.49-29.12 0.15 0.23 166.03-122.05 164.88-123.01-2.22-1.85-27.4-37.49-29.04-39.93-0.43-0.64-165.35 122.73-165.08 120.44 0.07-0.64-17.28-24.64-17.8-25.42-0.54-0.81-27.45 87.02-29.87 88.59-3.36 2.19 80.62 3.92 93.4 8.45z" fill-rule="evenodd" transform="matrix(.75373 0 0 .75373 -78.86 -176.01)" filter="url(#filter8535)"/>
    <path id="path3547" stroke-linejoin="round" d="m200.61 149.33c1.73 0.62-14.45-24.95-12.43-21.94 0.11 0.17 125.13-91.995 124.27-92.719-1.67-1.397-20.65-28.258-21.89-30.099-0.32-0.4826-124.62 92.504-124.42 90.785 0.05-0.486-13.02-18.573-13.42-19.162-0.41-0.614-20.69 65.585-22.51 66.775-2.53 1.64 60.77 2.95 70.4 6.36z" fill-rule="evenodd" fill-opacity=".89941" stroke="#000" stroke-linecap="round" stroke-width="2.2612" fill="#f00000"/>
  </g>
  <metadata>
    <rdf:RDF>
      <cc:Work>
        <dc:format>image/svg+xml</dc:format>
        <dc:type rdf:resource="http://purl.org/dc/dcmitype/StillImage"/>
        <cc:license rdf:resource="http://creativecommons.org/licenses/publicdomain/"/>
        <dc:publisher>
          <cc:Agent rdf:about="http://openclipart.org/">
            <dc:title>Openclipart</dc:title>
          </cc:Agent>
        </dc:publisher>
        <dc:title>Ruffled Map</dc:title>
        <dc:date>2007-02-26T16:13:45</dc:date>
        <dc:description>This is a simple generic map with a ruffled look to it, and an arrow pointing to a location.</dc:description>
        <dc:source>http://openclipart.org/detail/3325/ruffled-map-by-midkiffaries</dc:source>
        <dc:creator>
          <cc:Agent>
            <dc:title>midkiffaries</dc:title>
          </cc:Agent>
        </dc:creator>
        <dc:subject>
          <rdf:Bag>
            <rdf:li>arrow</rdf:li>
            <rdf:li>clip art</rdf:li>
            <rdf:li>clipart</rdf:li>
            <rdf:li>how i did it</rdf:li>
            <rdf:li>icon</rdf:li>
            <rdf:li>map</rdf:li>
            <rdf:li>target</rdf:li>
          </rdf:Bag>
        </dc:subject>
      </cc:Work>
      <cc:License rdf:about="http://creativecommons.org/licenses/publicdomain/">
        <cc:permits rdf:resource="http://creativecommons.org/ns#Reproduction"/>
        <cc:permits rdf:resource="http://creativecommons.org/ns#Distribution"/>
        <cc:permits rdf:resource="http://creativecommons.org/ns#DerivativeWorks"/>
      </cc:License>
    </rdf:RDF>
  </metadata>
</svg>
